<svg xmlns="http://www.w3.org/2000/svg" viewBox="0 0 400 400"><defs><style>.cls-1{fill:#6fadad;}.cls-2{fill:#519096;}.cls-3{fill:#609da0;}.cls-4{fill:#b6dbcf;}.cls-5{fill:#fefdef;}.cls-6{fill:#edede8;}.cls-7{fill:#0a2538;}.cls-8{fill:#fff;}.cls-9{fill:#fc5959;}.cls-10{fill:#cf4232;}</style></defs><g id="Layer_2" data-name="Layer 2"><g id="EchoPlus_Robot" data-name="EchoPlus Robot"><g id="Horn"><path class="cls-1" d="M338.18,94.6a12.58,12.58,0,1,1-15.83-13.84h.16A17.78,17.78,0,0,1,338.18,94.6Z"/><path class="cls-2" d="M338.6,97.35a15.85,15.85,0,0,1,0,2.58c0,.32-.06.64-.11.94a1.57,1.57,0,0,1-.05.37,9.65,9.65,0,0,1-.19,1v0a17.73,17.73,0,0,1-.87,2.88c-.21.53-.45,1-.69,1.52s-.45.83-.69,1.23a1.35,1.35,0,0,1-.18.26v0c-.29.45-.61.91-.93,1.33l-.13.19a10.45,10.45,0,0,1-.9,1,2.11,2.11,0,0,1-.32.37l-.16.16c-.16.16-.34.32-.5.45a3,3,0,0,1-.42.38c-.32.29-.67.56-1,.82a.24.24,0,0,1-.11.08,10.57,10.57,0,0,1-1.13.8c-.06,0-.08.06-.11.06l-.69.37-.23.13c-.23.12-.45.26-.7.38s-.31.13-.47.21c-.32.13-.64.27-.95.37l-.4.16a6.55,6.55,0,0,1-1,.32.32.32,0,0,1-.18,0,0,0,0,0,1,0,0,1.28,1.28,0,0,1-.27,0c-.26.08-.52.13-.79.19l-.32.08-.24,0a12.78,12.78,0,0,1-1.77.22c-.17,0-.33,0-.49,0a15.88,15.88,0,0,1-2-.05,15,15,0,0,1-1.52-.18,19.85,19.85,0,0,1-2.22-.47c-.22-.06-.43-.11-.64-.19l-2.67,9.07-.82,2.74c-1,4-3,12.75-3,12.75H281.42c8.71-9.68,17.45-19.81,26.16-29.65-.32-.38-.61-.72-.9-1.12a.57.57,0,0,0-.11-.16,11.43,11.43,0,0,1-.9-1.36c-.27-.46-.53-.91-.74-1.36a16.72,16.72,0,0,1-.77-1.87,12.57,12.57,0,0,1-.4-1.28,1.8,1.8,0,0,0-.08-.21c-.08-.35-.15-.67-.21-1a18,18,0,0,1-.32-2.34,14.44,14.44,0,0,1,.06-2.64,9.74,9.74,0,0,1,.16-1.36s0-.06,0-.08c.05-.22.08-.4.13-.62a3.1,3.1,0,0,1,.08-.42.82.82,0,0,1,0-.22,2.58,2.58,0,0,0,.08-.26,5.14,5.14,0,0,0,.16-.51c.06-.16.11-.35.16-.51s.19-.58.29-.88a6.74,6.74,0,0,1,.35-.82,1.09,1.09,0,0,1,.21-.51,14.69,14.69,0,0,1,.82-1.52c.34-.53.71-1.07,1.11-1.6l.13-.19c.19-.26.4-.53.64-.8s.37-.37.56-.58a1.53,1.53,0,0,0,.13-.16,17.62,17.62,0,0,1,9.69-5.07,11.8,11.8,0,0,1,1.8-.21c.34,0,.66,0,1,0,.55,0,1.11,0,1.64.08A12.66,12.66,0,1,0,338.18,94.6,15.46,15.46,0,0,1,338.6,97.35Z"/><path class="cls-1" d="M313.8,120.4l-2.55,8.68c-4.27-1.69-8.76-2.84-12.78-4.28C304.18,119.56,307.68,115.64,313.8,120.4Z"/><path class="cls-3" d="M338.6,97.35a15.85,15.85,0,0,1,0,2.58c0,.32-.06.64-.11.94a1.57,1.57,0,0,1-.05.37,9.65,9.65,0,0,1-.19,1v0a17.73,17.73,0,0,1-.87,2.88c-.21.53-.45,1-.69,1.52s-.45.83-.69,1.23a1.35,1.35,0,0,1-.18.26v0a16.44,16.44,0,0,1-2,2.51c-.32.34-.64.66-1,1a3,3,0,0,1-.42.38c-.32.29-.67.56-1,.82a.24.24,0,0,1-.11.08,17.16,17.16,0,0,1-4.28,2.32,14.71,14.71,0,0,1-1.59.51l-.3.08c-.45.11-.89.19-1.35.29h-.07c-.51.08-1,.14-1.57.19a19.17,19.17,0,0,1-6.32-.69,17.81,17.81,0,0,1-9.16-6.4.57.57,0,0,0-.11-.16,11.43,11.43,0,0,1-.9-1.36c-.27-.46-.53-.91-.74-1.36a16.72,16.72,0,0,1-.77-1.87,12.57,12.57,0,0,1-.4-1.28,1.8,1.8,0,0,0-.08-.21c-.08-.35-.15-.67-.21-1a18,18,0,0,1-.32-2.34,14.44,14.44,0,0,1,.06-2.64,9.74,9.74,0,0,1,.16-1.36s0-.06,0-.08c.05-.35.13-.7.21-1a2.73,2.73,0,0,1,.1-.48,5.14,5.14,0,0,0,.16-.51c.06-.16.11-.35.16-.51s.19-.58.29-.88a6.74,6.74,0,0,1,.35-.82,1.09,1.09,0,0,1,.21-.51,14.69,14.69,0,0,1,.82-1.52,17.15,17.15,0,0,1,1.74-2.41l.14-.18.12-.13a17.58,17.58,0,0,1,12.06-5.95,19.69,19.69,0,0,1,2.78.06.75.75,0,0,0-.16.05A12.66,12.66,0,1,0,338.18,94.6,15.46,15.46,0,0,1,338.6,97.35Z"/><path class="cls-2" d="M309.85,84.61A17.67,17.67,0,0,0,324.91,113a17.44,17.44,0,0,0,11.22-5.11,17.72,17.72,0,0,1-32.84-8.21A17.92,17.92,0,0,1,309.85,84.61Z"/><path class="cls-1" d="M61.82,94.6A12.58,12.58,0,1,0,77.65,80.76h-.16A17.78,17.78,0,0,0,61.82,94.6Z"/><path class="cls-2" d="M61.39,97.35a17,17,0,0,0,0,2.58,9.3,9.3,0,0,0,.11.94,1.57,1.57,0,0,0,0,.37c.05.35.11.67.18,1v0a18.81,18.81,0,0,0,.88,2.88c.21.53.45,1,.69,1.52s.45.83.69,1.23a1.35,1.35,0,0,0,.18.26v0c.29.45.61.91.93,1.33l.13.19a10.45,10.45,0,0,0,.9,1,1.76,1.76,0,0,0,.32.37l.16.16c.16.16.34.32.5.45a2.53,2.53,0,0,0,.42.38c.32.29.66.56,1,.82a.27.27,0,0,0,.1.08,11.79,11.79,0,0,0,1.14.8c.06,0,.08.06.11.06.22.13.46.24.69.37l.22.13c.24.12.46.26.7.38s.32.13.48.21c.32.13.64.27.95.37l.4.16a6.55,6.55,0,0,0,1,.32.32.32,0,0,0,.18,0,0,0,0,0,0,0,0,1.19,1.19,0,0,0,.26,0c.27.08.53.13.8.19l.32.08.23,0a13.12,13.12,0,0,0,1.78.22c.17,0,.32,0,.49,0a15.88,15.88,0,0,0,2-.05,15,15,0,0,0,1.52-.18,20.33,20.33,0,0,0,2.22-.47c.21-.06.43-.11.64-.19l2.67,9.07.82,2.74c1,4,3,12.75,3,12.75h27.24c-8.71-9.68-17.45-19.81-26.16-29.65.32-.38.61-.72.9-1.12a.57.57,0,0,1,.11-.16,12.81,12.81,0,0,0,.9-1.36c.26-.46.53-.91.74-1.36a16.72,16.72,0,0,0,.77-1.87,10.41,10.41,0,0,0,.39-1.28,1.8,1.8,0,0,0,.08-.21c.08-.35.16-.67.22-1a16.46,16.46,0,0,0,.31-2.34,13.61,13.61,0,0,0,0-2.64,11.51,11.51,0,0,0-.16-1.36s0-.06,0-.08c0-.22-.08-.4-.13-.62a3.1,3.1,0,0,0-.08-.42.56.56,0,0,0,0-.22,2.58,2.58,0,0,0-.08-.26c0-.16-.1-.32-.15-.51s-.11-.35-.16-.51-.19-.58-.29-.88a8.79,8.79,0,0,0-.35-.82,1.2,1.2,0,0,0-.21-.51,14.69,14.69,0,0,0-.82-1.52c-.35-.53-.72-1.07-1.11-1.6l-.14-.19a8.44,8.44,0,0,0-.63-.8c-.16-.18-.37-.37-.56-.58a1.53,1.53,0,0,1-.13-.16,17.62,17.62,0,0,0-9.69-5.07,11.8,11.8,0,0,0-1.8-.21c-.34,0-.66,0-1,0-.55,0-1.11,0-1.64.08A12.66,12.66,0,1,1,61.82,94.6,16.43,16.43,0,0,0,61.39,97.35Z"/><path class="cls-1" d="M86.19,120.4l2.56,8.68c4.26-1.69,8.76-2.84,12.78-4.28C95.82,119.56,92.32,115.64,86.19,120.4Z"/><path class="cls-3" d="M61.39,97.35a17,17,0,0,0,0,2.58,9.3,9.3,0,0,0,.11.94,1.57,1.57,0,0,0,0,.37c.05.35.11.67.18,1v0a18.81,18.81,0,0,0,.88,2.88c.21.53.45,1,.69,1.52s.45.83.69,1.23a1.35,1.35,0,0,0,.18.26v0a16.44,16.44,0,0,0,2,2.51c.32.34.64.66,1,1a2.53,2.53,0,0,0,.42.38c.32.29.66.56,1,.82a.27.27,0,0,0,.1.08A17.4,17.4,0,0,0,73,115.29a14.71,14.71,0,0,0,1.59.51l.29.08c.45.11.9.19,1.35.29h.08c.51.08,1,.14,1.56.19a19.19,19.19,0,0,0,6.33-.69,17.81,17.81,0,0,0,9.16-6.4.57.57,0,0,1,.11-.16,12.81,12.81,0,0,0,.9-1.36c.26-.46.53-.91.74-1.36a16.72,16.72,0,0,0,.77-1.87,10.41,10.41,0,0,0,.39-1.28,1.8,1.8,0,0,0,.08-.21c.08-.35.16-.67.22-1a16.46,16.46,0,0,0,.31-2.34,13.61,13.61,0,0,0,0-2.64,11.51,11.51,0,0,0-.16-1.36s0-.06,0-.08c0-.35-.13-.7-.21-1a2.77,2.77,0,0,0-.11-.48c0-.16-.1-.32-.15-.51s-.11-.35-.16-.51-.19-.58-.29-.88a8.79,8.79,0,0,0-.35-.82,1.2,1.2,0,0,0-.21-.51,14.69,14.69,0,0,0-.82-1.52,18,18,0,0,0-1.74-2.41l-.14-.18-.13-.13a17.54,17.54,0,0,0-12-5.95,19.69,19.69,0,0,0-2.78.06,1,1,0,0,1,.16.05A12.66,12.66,0,1,1,61.82,94.6,16.43,16.43,0,0,0,61.39,97.35Z"/><path class="cls-2" d="M90.15,84.61A17.68,17.68,0,0,1,75.09,113a17.39,17.39,0,0,1-11.22-5.11,17.72,17.72,0,0,0,32.84-8.21A17.94,17.94,0,0,0,90.15,84.61Z"/></g><rect class="cls-4" x="137.5" width="125" height="400" rx="62.5"/><rect class="cls-5" x="137.5" width="125" height="400" rx="62.5" transform="translate(400 0) rotate(90)"/><path class="cls-6" d="M325,137.5c-36.64.84-53.07,38.27-66.43,67.23-10.17,22-33.64,39.16-58.57,39.16s-48.4-17.13-58.57-39.16c-13.38-29-29.79-66.39-66.43-67.23Z"/><g id="FACE"><path class="cls-7" d="M252,167.11a14.33,14.33,0,1,1-14.33-14.44A14.38,14.38,0,0,1,252,167.11Z"/><path class="cls-8" d="M237.88,162.89a4.44,4.44,0,1,1-4.44-4.47A4.45,4.45,0,0,1,237.88,162.89Z"/><path class="cls-8" d="M245.27,172.38a2.4,2.4,0,1,1-2.4-2.41A2.41,2.41,0,0,1,245.27,172.38Z"/><path class="cls-9" d="M244.55,188.93c0,2-3.08,3.66-6.88,3.66s-6.89-1.64-6.89-3.66,3.08-3.67,6.89-3.67S244.55,186.9,244.55,188.93Z"/><path class="cls-9" d="M156,188.93c0,2,3.08,3.66,6.88,3.66s6.88-1.64,6.88-3.66-3.08-3.67-6.88-3.67S156,186.9,156,188.93Z"/><path class="cls-7" d="M150.14,179.85a2.11,2.11,0,0,1-.91-4l21.56-10.4L149.23,155a2.11,2.11,0,0,1,1.81-3.81l25.51,12.31a2.12,2.12,0,0,1,0,3.81L151,179.64A2.08,2.08,0,0,1,150.14,179.85Z"/><path class="cls-7" d="M175.65,167.54H150.13a2.12,2.12,0,0,1,0-4.23h25.52a2.12,2.12,0,0,1,0,4.23Z"/><path class="cls-7" d="M150.14,179.85a2.11,2.11,0,0,1-.91-4l21.56-10.4L149.23,155a2.11,2.11,0,0,1,1.81-3.81l25.51,12.31a2.12,2.12,0,0,1,0,3.81L151,179.64A2.08,2.08,0,0,1,150.14,179.85Z"/><path class="cls-7" d="M175.65,167.54H150.13a2.12,2.12,0,0,1,0-4.23h25.52a2.12,2.12,0,0,1,0,4.23Z"/><path class="cls-7" d="M200,195.27c-7.47,0-14-3.6-16.27-9a1.59,1.59,0,0,1,.84-2.08,1.57,1.57,0,0,1,2.06.84c1.74,4.15,7.24,7,13.37,7s11.63-2.89,13.37-7a1.57,1.57,0,0,1,2.06-.84,1.59,1.59,0,0,1,.84,2.08C214,191.67,207.47,195.27,200,195.27Z"/><path class="cls-10" d="M208.8,200.55a4.33,4.33,0,0,1-5.3-2.47l-1.67-4.16c3.24-.53,5.91-1.15,8.3-3l1.05,4.25A4.38,4.38,0,0,1,208.8,200.55Z"/><path class="cls-7" d="M207.51,201.84a5.2,5.2,0,0,1-2.36-.58,5.3,5.3,0,0,1-2.64-2.81l-1.65-4.13a1.07,1.07,0,0,1,.8-1.44c3.47-.57,5.74-1.18,7.83-2.79a1,1,0,0,1,1.65.58l1.06,4.26a5.4,5.4,0,0,1-3,6.61A4.69,4.69,0,0,1,207.51,201.84Zm-4.22-7.1,1.18,2.95a3.18,3.18,0,0,0,1.6,1.68,2.94,2.94,0,0,0,2.36.19,3.33,3.33,0,0,0,1.77-4l-.73-2.91A18.19,18.19,0,0,1,203.29,194.74Z"/></g></g></g></svg>